<svg xmlns="http://www.w3.org/2000/svg" fill="none" viewBox="74.75 7.12 29.18 28.65"><path d="M87.4116 21.0895H83.669V13.0725C83.669 12.083 83.494 11.3425 83.144 10.8444C82.7939 10.3463 82.2285 10.104 81.4611 10.104C80.411 10.104 79.6571 10.454 79.1927 11.154C78.7282 11.8541 78.4926 13.0119 78.4926 14.6341V21.0895H74.75V7.37103H77.6108L78.1157 9.12791H78.3243C78.7417 8.46824 79.3138 7.96338 80.0476 7.62682C80.7813 7.29025 81.6092 7.11523 82.5449 7.11523C84.1402 7.11523 85.3518 7.54604 86.1798 8.40765C87.0077 9.26927 87.4184 10.5146 87.4184 12.1436V21.0895H87.4116Z" fill="#7A5AF8"/><path d="M91.2617 12.1436C91.2617 10.5146 91.6723 9.26927 92.5003 8.40765C93.3282 7.54604 94.5399 7.11523 96.1352 7.11523C97.0709 7.11523 97.8988 7.28352 98.6325 7.62682C99.3662 7.96338 99.9384 8.46824 100.356 9.12791H100.564L101.069 7.37103H103.93V21.0895H100.187V14.6341C100.187 13.0119 99.9519 11.8541 99.4874 11.154C99.0229 10.454 98.2623 10.104 97.2189 10.104C96.4516 10.104 95.8861 10.353 95.5361 10.8444C95.1861 11.3425 95.0111 12.083 95.0111 13.0725V21.0895H91.2685V12.1436H91.2617Z" fill="#7A5AF8"/><path d="M103.787 23.6543C102.575 30.5337 96.5644 35.764 89.335 35.764C82.1055 35.764 76.0945 30.5337 74.8828 23.6543H78.6927C79.8505 28.4605 84.1788 32.0416 89.335 32.0416C94.4912 32.0416 98.8194 28.4605 99.9772 23.6543H103.787Z" fill="#7A5AF8"/></svg>